<svg version="1.1" id="Layer_1" xmlns="http://www.w3.org/2000/svg" xmlns:xlink="http://www.w3.org/1999/xlink" x="0px" y="0px"
	 width="100%" viewBox="0 0 128 128" enable-background="new 0 0 128 128" xml:space="preserve">
<path fill="#47704C" opacity="1.000000" stroke="none" 
	d="
M45.000000,1.000000 
	C72.960938,1.000000 100.921875,1.000000 128.941406,1.000000 
	C128.941406,43.568008 128.941406,86.136116 128.941406,129.000000 
	C95.313019,129.000000 61.625164,129.000000 27.606218,128.687469 
	C29.184774,126.186493 31.702229,124.326721 30.231976,120.693977 
	C29.911871,119.903038 30.697453,118.457008 31.304403,117.528893 
	C45.917686,95.183205 60.555626,72.853539 75.249039,50.560471 
	C77.344704,47.380913 84.073547,45.861088 87.339859,47.775883 
	C98.375679,54.245358 107.145515,62.549366 110.092339,75.693932 
	C111.210098,80.679840 113.982162,81.654221 121.146622,79.988197 
	C125.249634,79.034088 125.615982,75.982079 125.306854,72.426384 
	C124.377235,61.733845 119.174911,52.999863 112.465012,45.131836 
	C110.266930,42.554356 106.832253,41.031445 103.670586,38.937538 
	C102.590141,38.223354 101.802208,37.597893 101.015656,36.595512 
	C99.527359,31.586592 95.659584,26.021603 97.035728,22.513935 
	C100.037407,14.862915 95.186806,13.259811 90.935089,10.279685 
	C86.224854,6.978166 84.781197,7.054681 81.815430,10.186563 
	C77.683296,11.034738 74.988510,11.657506 72.265495,12.110596 
	C71.256622,12.278464 70.048401,12.347662 69.157295,11.952176 
	C61.076344,8.365714 53.045506,4.666329 45.000000,1.000000 
z"/>
<path fill="#47704C" opacity="1.000000" stroke="none" 
	d="
M21.000000,129.000000 
	C14.350439,129.000000 7.700879,129.000000 1.055399,128.999985 
	C1.059480,86.333298 1.059480,43.666618 1.059480,1.000000 
	C8.433483,1.000000 15.748005,1.000000 23.340378,1.294605 
	C18.206438,3.744154 16.941900,6.962828 19.107180,13.071333 
	C20.361519,16.609970 24.014212,18.022858 28.637747,16.753616 
	C29.425787,16.537285 30.233864,16.045547 30.991110,16.117655 
	C42.536587,17.217056 52.750950,21.362997 61.060120,29.640530 
	C63.283047,31.854994 63.510384,38.298256 61.620071,40.834034 
	C54.716568,50.094837 47.722324,59.289967 40.976040,68.663689 
	C40.050705,69.949409 40.332321,72.103775 39.768845,74.018677 
	C38.948593,75.134659 38.414627,76.087944 37.600246,76.911636 
	C36.049404,77.472969 34.399601,77.863541 33.573864,78.906525 
	C29.892820,83.556068 26.809441,88.723709 22.823956,93.075783 
	C17.966093,98.380501 15.492228,105.654022 7.955943,108.898499 
	C2.902118,111.074242 3.486319,116.462967 8.202185,119.795395 
	C12.493443,122.827766 16.735985,125.929077 21.000000,129.000000 
z"/>
<path fill="#090706" opacity="1.000000" stroke="none" 
	d="
M21.428463,129.000000 
	C16.735985,125.929077 12.493443,122.827766 8.202185,119.795395 
	C3.486319,116.462967 2.902118,111.074242 7.955943,108.898499 
	C15.492228,105.654022 17.966093,98.380501 22.823956,93.075783 
	C26.809441,88.723709 29.892820,83.556068 33.573864,78.906525 
	C34.399601,77.863541 36.049404,77.472969 37.714901,77.293396 
	C36.822193,80.790848 35.534412,83.776924 34.182610,86.911469 
	C34.554737,87.231407 35.003956,87.701263 35.532612,88.051079 
	C36.202629,88.494423 36.937191,88.840233 37.856079,89.506653 
	C39.385124,90.656677 40.702015,91.528168 42.232224,92.540825 
	C52.940075,76.308571 63.315464,60.580303 73.849678,44.611271 
	C71.781395,43.230011 70.283249,42.229496 68.358353,41.134636 
	C66.722984,42.350399 65.389107,43.566708 64.326271,44.985981 
	C57.901627,53.565277 51.623573,62.256310 45.074509,70.738594 
	C43.946972,72.198959 41.755272,72.837700 40.055138,73.855972 
	C40.332321,72.103775 40.050705,69.949409 40.976040,68.663689 
	C47.722324,59.289967 54.716568,50.094837 61.620071,40.834034 
	C63.510384,38.298256 63.283047,31.854994 61.060120,29.640530 
	C52.750950,21.362997 42.536587,17.217056 30.991110,16.117655 
	C30.233864,16.045547 29.425787,16.537285 28.637747,16.753616 
	C24.014212,18.022858 20.361519,16.609970 19.107180,13.071333 
	C16.941900,6.962828 18.206438,3.744154 23.809116,1.294605 
	C30.687645,1.000000 37.375290,1.000000 44.531467,1.000000 
	C53.045506,4.666329 61.076344,8.365714 69.157295,11.952176 
	C70.048401,12.347662 71.256622,12.278464 72.265495,12.110596 
	C74.988510,11.657506 77.683296,11.034738 81.815430,10.186563 
	C84.781197,7.054681 86.224854,6.978166 90.935089,10.279685 
	C95.186806,13.259811 100.037407,14.862915 97.035728,22.513935 
	C95.659584,26.021603 99.527359,31.586592 100.724106,36.777435 
	C98.213295,36.833252 95.995422,36.330227 93.790565,35.830158 
	C91.846848,37.882137 89.721504,40.125862 87.425903,42.549320 
	C100.870789,49.596230 111.080986,59.678982 115.062958,75.277969 
	C115.363251,75.661362 115.683716,75.760864 116.395538,75.916389 
	C120.894371,76.114899 121.231987,73.881241 120.566971,70.509613 
	C118.611031,60.593060 112.993866,52.835056 106.576851,45.403870 
	C105.153091,43.755104 104.805946,41.176651 103.963089,39.026264 
	C106.832253,41.031445 110.266930,42.554356 112.465012,45.131836 
	C119.174911,52.999863 124.377235,61.733845 125.306854,72.426384 
	C125.615982,75.982079 125.249634,79.034088 121.146622,79.988197 
	C113.982162,81.654221 111.210098,80.679840 110.092339,75.693932 
	C107.145515,62.549366 98.375679,54.245358 87.339859,47.775883 
	C84.073547,45.861088 77.344704,47.380913 75.249039,50.560471 
	C60.555626,72.853539 45.917686,95.183205 31.304403,117.528893 
	C30.697453,118.457008 29.911871,119.903038 30.231976,120.693977 
	C31.702229,124.326721 29.184774,126.186493 27.137562,128.687469 
	C25.285643,129.000000 23.571283,129.000000 21.428463,129.000000 
M75.015388,40.771835 
	C78.147667,43.978863 80.758316,43.396690 83.598106,40.103436 
	C86.390099,36.865616 89.631096,34.003574 92.774696,31.083912 
	C95.351707,28.690479 95.142464,26.968521 91.379196,25.138809 
	C86.421890,21.669550 81.464577,18.200293 75.894913,14.302494 
	C73.799576,18.755899 71.964531,22.554533 70.216141,26.392637 
	C66.237389,35.126884 66.254677,35.134758 75.015388,40.771835 
M36.000435,12.140881 
	C47.444912,13.770406 56.862885,19.467020 65.654854,27.341192 
	C67.127289,24.036268 68.436508,21.097679 69.878784,17.860428 
	C55.338448,8.683618 40.816822,1.732979 22.847635,6.400189 
	C23.223387,8.536407 23.526237,10.258162 23.842279,12.054918 
	C27.828259,12.054918 31.464348,12.054918 36.000435,12.140881 
M15.299717,119.241608 
	C17.239267,120.247269 19.178818,121.252937 21.118368,122.258598 
	C21.546928,121.552505 21.975491,120.846405 22.404051,120.140305 
	C18.618742,117.376511 14.833434,114.612709 10.671176,111.573685 
	C8.635410,116.838501 13.080729,116.888046 15.299717,119.241608 
M27.139399,114.406189 
	C24.834080,112.638107 22.652498,110.657547 20.162109,109.207253 
	C19.175734,108.632835 17.503222,109.236618 16.143114,109.303955 
	C16.159351,109.812141 16.175589,110.320328 16.191828,110.828514 
	C18.442839,112.448296 20.574669,114.294388 23.004728,115.574196 
	C23.949585,116.071815 25.567358,115.291725 27.139399,114.406189 
M21.590405,105.581146 
	C24.555710,107.004410 26.459555,111.767235 31.432613,108.989548 
	C28.202009,106.268082 25.509031,103.999512 22.090796,101.119987 
	C21.610777,102.924088 21.327551,103.988571 21.590405,105.581146 
M25.640064,97.112488 
	C27.753099,99.341309 29.774576,101.672737 32.058094,103.710518 
	C32.503212,104.107727 33.966663,103.363815 34.960411,103.146248 
	C35.030415,102.672676 35.100422,102.199104 35.170425,101.725533 
	C32.141853,99.997452 29.113277,98.269371 25.640064,97.112488 
M87.849312,13.430763 
	C86.633224,13.632020 85.417137,13.833278 83.080261,14.220021 
	C84.858574,15.789086 85.372154,16.531322 86.069496,16.804565 
	C88.373322,17.707281 90.743515,18.440598 93.088234,19.238939 
	C91.538170,17.446796 89.988113,15.654655 87.849312,13.430763 
M29.726423,91.702187 
	C32.326809,93.830360 34.927197,95.958534 37.527580,98.086708 
	C38.086517,97.368965 38.645454,96.651230 39.195023,95.945518 
	C37.371872,94.390648 35.934448,92.827415 34.184288,91.793648 
	C33.063667,91.131737 31.481430,91.251358 29.726423,91.702187 
z"/>
<path fill="#D2D0D3" opacity="1.000000" stroke="none" 
	d="
M115.083122,74.994095 
	C111.080986,59.678982 100.870789,49.596230 87.425903,42.549320 
	C89.721504,40.125862 91.846848,37.882137 93.790565,35.830158 
	C95.995422,36.330227 98.213295,36.833252 100.722717,37.154350 
	C101.802208,37.597893 102.590141,38.223354 103.670586,38.937538 
	C104.805946,41.176651 105.153091,43.755104 106.576851,45.403870 
	C112.993866,52.835056 118.611031,60.593060 120.566971,70.509613 
	C121.231987,73.881241 120.894371,76.114899 116.288826,75.727219 
	C115.602600,75.250168 115.366730,75.087524 115.083122,74.994095 
z"/>
<path fill="#C89369" opacity="1.000000" stroke="none" 
	d="
M37.643917,89.228104 
	C36.937191,88.840233 36.202629,88.494423 35.532612,88.051079 
	C35.003956,87.701263 34.554737,87.231407 34.182610,86.911469 
	C35.534412,83.776924 36.822193,80.790848 37.995319,77.422997 
	C38.414627,76.087944 38.948593,75.134659 39.768848,74.018677 
	C41.755272,72.837700 43.946972,72.198959 45.074509,70.738594 
	C51.623573,62.256310 57.901627,53.565277 64.326271,44.985981 
	C65.389107,43.566708 66.722984,42.350399 68.150787,41.530956 
	C68.132408,42.812775 68.069679,43.720417 67.631592,44.377987 
	C57.660496,59.344543 47.648361,74.283768 37.643917,89.228104 
z"/>
<path fill="#D1CFD2" opacity="1.000000" stroke="none" 
	d="
M35.550438,12.097899 
	C31.464348,12.054918 27.828259,12.054918 23.842279,12.054918 
	C23.526237,10.258162 23.223387,8.536407 22.847635,6.400189 
	C40.816822,1.732979 55.338448,8.683618 69.878784,17.860428 
	C68.436508,21.097679 67.127289,24.036268 65.654854,27.341192 
	C56.862885,19.467020 47.444912,13.770406 35.550438,12.097899 
z"/>
<path fill="#E7E5E7" opacity="1.000000" stroke="none" 
	d="
M74.582008,40.184544 
	C66.254677,35.134758 66.237389,35.126884 70.216141,26.392637 
	C71.964531,22.554533 73.799576,18.755899 75.894913,14.302494 
	C81.464577,18.200293 86.421890,21.669550 91.232361,25.553970 
	C88.579628,28.292835 86.140991,30.694862 83.550011,32.919449 
	C80.632294,35.424564 77.577293,37.769779 74.582008,40.184544 
z"/>
<path fill="#B6805B" opacity="1.000000" stroke="none" 
	d="
M37.856075,89.506653 
	C47.648361,74.283768 57.660496,59.344543 67.631592,44.377987 
	C68.069679,43.720417 68.132408,42.812775 68.577538,41.625298 
	C70.283249,42.229496 71.781395,43.230011 73.849678,44.611271 
	C63.315464,60.580303 52.940075,76.308571 42.232224,92.540825 
	C40.702015,91.528168 39.385124,90.656677 37.856075,89.506653 
z"/>
<path fill="#D5D3D6" opacity="1.000000" stroke="none" 
	d="
M74.798698,40.478188 
	C77.577293,37.769779 80.632294,35.424564 83.550011,32.919449 
	C86.140991,30.694862 88.579628,28.292835 91.452606,25.840042 
	C95.142464,26.968521 95.351707,28.690479 92.774696,31.083912 
	C89.631096,34.003574 86.390099,36.865616 83.598106,40.103436 
	C80.758316,43.396690 78.147667,43.978863 74.798698,40.478188 
z"/>
<path fill="#645D66" opacity="1.000000" stroke="none" 
	d="
M14.991108,119.037842 
	C13.080729,116.888046 8.635410,116.838501 10.671176,111.573685 
	C14.833434,114.612709 18.618742,117.376511 22.404051,120.140305 
	C21.975491,120.846405 21.546928,121.552505 21.118368,122.258598 
	C19.178818,121.252937 17.239267,120.247269 14.991108,119.037842 
z"/>
<path fill="#EDCB6C" opacity="1.000000" stroke="none" 
	d="
M27.009003,114.749924 
	C25.567358,115.291725 23.949585,116.071815 23.004728,115.574196 
	C20.574669,114.294388 18.442839,112.448296 16.191828,110.828514 
	C16.175589,110.320328 16.159351,109.812141 16.143114,109.303955 
	C17.503222,109.236618 19.175734,108.632835 20.162109,109.207253 
	C22.652498,110.657547 24.834080,112.638107 27.009003,114.749924 
z"/>
<path fill="#ECCA6B" opacity="1.000000" stroke="none" 
	d="
M21.317364,105.317093 
	C21.327551,103.988571 21.610777,102.924088 22.090796,101.119987 
	C25.509031,103.999512 28.202009,106.268082 31.432613,108.989548 
	C26.459555,111.767235 24.555710,107.004410 21.317364,105.317093 
z"/>
<path fill="#EDCB6B" opacity="1.000000" stroke="none" 
	d="
M25.862385,96.826889 
	C29.113277,98.269371 32.141853,99.997452 35.170425,101.725533 
	C35.100422,102.199104 35.030415,102.672676 34.960411,103.146248 
	C33.966663,103.363815 32.503212,104.107727 32.058094,103.710518 
	C29.774576,101.672737 27.753099,99.341309 25.862385,96.826889 
z"/>
<path fill="#B4825D" opacity="1.000000" stroke="none" 
	d="
M88.143684,13.646639 
	C89.988113,15.654655 91.538170,17.446796 93.088234,19.238937 
	C90.743515,18.440598 88.373322,17.707281 86.069496,16.804565 
	C85.372154,16.531322 84.858574,15.789086 83.080261,14.220021 
	C85.417137,13.833278 86.633224,13.632020 88.143684,13.646639 
z"/>
<path fill="#EDCA6A" opacity="1.000000" stroke="none" 
	d="
M29.916279,91.361404 
	C31.481430,91.251358 33.063667,91.131737 34.184288,91.793648 
	C35.934448,92.827415 37.371872,94.390648 39.195023,95.945518 
	C38.645454,96.651230 38.086517,97.368965 37.527580,98.086708 
	C34.927197,95.958534 32.326809,93.830360 29.916279,91.361404 
z"/>
<path fill="#BBB9BC" opacity="1.000000" stroke="none" 
	d="
M115.062958,75.277969 
	C115.366730,75.087524 115.602600,75.250168 115.897461,75.671204 
	C115.683716,75.760864 115.363251,75.661362 115.062958,75.277969 
z"/>
</svg>