<svg version="1.1" id="Layer_1" xmlns="http://www.w3.org/2000/svg" xmlns:xlink="http://www.w3.org/1999/xlink" x="0px" y="0px"
	 width="100%" viewBox="0 0 512 512" enable-background="new 0 0 512 512" xml:space="preserve">
<path fill="#000000" opacity="1.000000" stroke="none" 
	d="
M513.000000,194.000000 
	C513.000000,300.640747 513.000000,406.781494 513.000000,512.961121 
	C342.400909,512.961121 171.801804,512.961121 1.101355,512.961121 
	C1.101355,342.442627 1.101355,171.885147 1.101355,1.163839 
	C171.666534,1.163839 342.333252,1.163839 513.000000,1.163839 
	C513.000000,65.198151 513.000000,129.349075 513.000000,194.000000 
M346.293488,67.603348 
	C352.355011,71.831490 358.416504,76.059624 364.849335,80.546783 
	C367.043823,77.420715 368.967407,74.570618 371.007996,71.806938 
	C372.775818,69.412712 372.319366,67.675560 369.886047,66.059158 
	C364.530579,62.501579 359.257019,58.820618 353.470001,54.711468 
	C338.361389,44.399731 342.825256,43.665234 333.211792,57.015438 
	C333.057892,57.229195 333.152771,57.622124 333.098236,58.417450 
	C337.239532,61.197674 341.586395,64.115883 346.293488,67.603348 
M130.374786,379.583862 
	C136.572388,383.879822 142.769974,388.175781 149.168381,392.610931 
	C151.997147,388.334106 154.531204,384.502808 157.306427,380.306946 
	C150.755402,375.838654 144.371063,371.484070 137.548096,366.609833 
	C132.323441,362.940521 127.098778,359.271240 121.753990,355.517578 
	C118.622459,359.756439 115.880028,363.468628 113.054916,367.292694 
	C114.514603,368.358582 115.688187,369.263641 116.909569,370.098785 
	C121.274338,373.083191 125.655319,376.043884 130.374786,379.583862 
M121.487808,391.690857 
	C115.740166,387.631531 109.992516,383.572235 104.053368,379.377655 
	C100.973099,383.583954 98.268730,387.276947 95.284813,391.351685 
	C101.738564,395.732086 107.853416,399.882477 114.315369,404.606262 
	C120.385330,408.820099 126.455292,413.033966 132.782898,417.426666 
	C135.568787,413.223663 138.104126,409.398682 140.937103,405.124634 
	C134.474518,400.718536 128.214752,396.450714 121.487808,391.690857 
M98.255783,429.628479 
	C104.238075,433.791870 110.220360,437.955261 116.401413,442.256989 
	C119.193848,438.020630 121.795441,434.073792 124.552605,429.890930 
	C118.007942,425.439789 111.979698,421.339905 105.468079,416.753693 
	C99.162903,412.311066 92.857727,407.868469 86.350662,403.283600 
	C83.268913,407.449707 80.539345,411.139740 77.529976,415.208038 
	C84.552437,419.974884 91.233986,424.510345 98.255783,429.628479 
M82.270348,454.710663 
	C88.056984,458.750946 93.843620,462.791260 99.996178,467.087036 
	C102.742088,462.923431 105.337547,458.987976 108.160980,454.706848 
	C101.608147,450.268250 95.353912,446.031891 88.761856,441.224976 
	C82.137550,436.610443 75.513237,431.995911 68.628754,427.200134 
	C65.620155,431.258942 62.831951,435.020416 59.809662,439.097687 
	C67.503944,444.322845 74.723877,449.225861 82.270348,454.710663 
M82.698494,473.302917 
	C70.058464,464.431000 57.456440,455.503693 44.723763,446.766846 
	C43.342812,445.819244 40.303596,445.065796 39.584503,445.781189 
	C37.153881,448.199432 35.267376,451.231018 33.538536,454.238373 
	C33.140442,454.930847 33.842152,456.970367 34.640430,457.529388 
	C48.364510,467.140106 62.183208,476.615692 76.306770,486.694702 
	C79.426140,488.911804 82.523621,491.160492 85.669090,493.339905 
	C94.124573,499.198425 95.186897,499.012634 99.878181,489.830078 
	C100.507828,488.597626 100.043335,485.695831 99.041641,484.926880 
	C93.910439,480.987823 88.437271,477.494171 82.698494,473.302917 
M435.039185,192.277130 
	C434.336700,191.580963 433.634216,190.884796 432.683685,189.554520 
	C426.969788,183.552353 421.132935,177.660202 415.609528,171.487595 
	C413.707092,169.361572 412.586090,166.536316 411.458099,163.417526 
	C412.000031,161.900009 412.541962,160.382492 413.209045,158.514511 
	C408.947388,154.635834 404.687042,150.632858 400.221680,146.873413 
	C399.733978,146.462799 398.065765,147.454376 396.190704,147.987259 
	C392.613373,149.821930 389.527466,148.887909 386.522034,146.518661 
	C382.355072,143.233765 378.055817,140.116714 373.091919,136.385681 
	C363.785461,146.528488 354.573212,156.568634 345.432068,166.531311 
	C345.283875,166.442001 346.392700,167.111496 347.502808,167.778961 
	C357.453369,173.761978 367.781921,179.202240 377.288116,185.823227 
	C414.341156,211.630341 442.347778,244.365860 454.423157,289.727722 
	C455.013672,292.492523 455.707703,295.240265 456.167877,298.026581 
	C456.713165,301.328278 458.361603,302.558563 461.721375,301.818604 
	C465.943481,300.888763 470.229828,300.254639 474.477692,299.436920 
	C481.262512,298.130798 481.452911,298.093597 480.810272,291.057037 
	C477.323334,252.876114 459.845459,221.166824 435.041656,192.955597 
	C435.041656,192.955597 435.170593,192.871078 435.039185,192.277130 
M296.318085,159.589508 
	C300.679596,162.636475 305.035553,165.691376 309.404297,168.727966 
	C313.013947,171.236969 316.608032,171.301514 319.830322,168.179825 
	C337.765778,150.804245 355.701172,133.427841 373.509766,115.922668 
	C377.301941,112.195129 376.811188,107.489319 372.530823,104.305130 
	C368.146545,101.043678 363.505798,98.127060 358.612915,94.489677 
	C341.991028,82.861671 325.390442,71.203072 308.735382,59.622772 
	C303.133545,55.727776 298.691437,56.625416 296.069122,62.393723 
	C285.835266,84.905014 275.735992,107.477577 265.629395,130.046509 
	C263.922974,133.857132 264.614868,137.292023 268.115295,139.744247 
	C277.361969,146.222076 286.681183,152.596405 296.318085,159.589508 
M273.788116,162.124741 
	C272.034302,160.900253 270.280487,159.675766 268.205994,158.227402 
	C267.069458,159.693863 266.046967,160.964172 265.076202,162.272858 
	C234.456818,203.552383 203.788467,244.795868 173.296021,286.169006 
	C169.513763,291.300873 165.701721,294.548004 159.452744,291.103607 
	C156.146652,295.441254 152.967590,299.371887 150.104294,303.520477 
	C149.282196,304.711578 148.562714,307.134003 149.179382,307.963287 
	C152.406387,312.302887 151.214325,315.913025 148.325119,319.732788 
	C142.432114,327.523834 136.689468,335.428558 130.655090,343.597504 
	C136.656494,347.606934 142.305557,351.380951 148.268539,355.740936 
	C153.932129,359.707275 159.595703,363.673645 165.547440,367.841797 
	C208.102692,303.406647 250.299683,239.513947 292.747284,175.241806 
	C286.252655,170.841309 280.223511,166.756180 273.788116,162.124741 
M167.773712,19.808849 
	C159.874146,18.677492 152.006912,17.163017 144.068405,16.493250 
	C126.678070,15.026044 109.529495,16.479351 92.746155,21.660704 
	C89.322639,22.717611 88.168022,24.246469 88.919655,27.731646 
	C89.935471,32.441772 90.704247,37.211384 91.406929,41.980824 
	C91.940536,45.602669 93.311852,47.012074 97.391357,46.333176 
	C113.773651,43.606892 130.211990,43.734001 146.604904,46.478058 
	C180.709503,52.186928 210.524811,67.346916 237.694046,88.162201 
	C245.199097,93.912094 252.272125,100.225876 259.754242,106.456520 
	C265.354523,93.993500 270.917145,81.614304 276.639465,68.879700 
	C271.633911,65.631668 266.976105,62.493488 262.207428,59.533897 
	C233.077301,41.454739 202.427536,26.950150 167.773712,19.808849 
z"/>
<path fill="#D9D7DA" opacity="1.000000" stroke="none" 
	d="
M168.192993,19.873123 
	C202.427536,26.950150 233.077301,41.454739 262.207428,59.533897 
	C266.976105,62.493488 271.633911,65.631668 276.639465,68.879700 
	C270.917145,81.614304 265.354523,93.993500 259.754242,106.456520 
	C252.272125,100.225876 245.199097,93.912094 237.694046,88.162201 
	C210.524811,67.346916 180.709503,52.186928 146.604904,46.478058 
	C130.211990,43.734001 113.773651,43.606892 97.391357,46.333176 
	C93.311852,47.012074 91.940536,45.602669 91.406929,41.980824 
	C90.704247,37.211384 89.935471,32.441772 88.919655,27.731646 
	C88.168022,24.246469 89.322639,22.717611 92.746155,21.660704 
	C109.529495,16.479351 126.678070,15.026044 144.068405,16.493250 
	C152.006912,17.163017 159.874146,18.677492 168.192993,19.873123 
z"/>
<path fill="#BB835D" opacity="1.000000" stroke="none" 
	d="
M274.194366,162.671051 
	C280.223511,166.756180 286.252655,170.841309 292.747284,175.241806 
	C250.299683,239.513947 208.102692,303.406647 165.547440,367.841797 
	C159.595703,363.673645 153.932129,359.707275 148.154297,355.082825 
	C148.811478,352.968079 149.467896,351.435547 150.371109,350.065796 
	C173.034409,315.695587 195.713531,281.335815 218.411560,246.988541 
	C236.991318,218.873123 255.599045,190.776199 274.194366,162.671051 
z"/>
<path fill="#ECEAEC" opacity="1.000000" stroke="none" 
	d="
M295.971527,159.011963 
	C286.681183,152.596405 277.361969,146.222076 268.115295,139.744247 
	C264.614868,137.292023 263.922974,133.857132 265.629395,130.046509 
	C275.735992,107.477577 285.835266,84.905014 296.069122,62.393723 
	C298.691437,56.625416 303.133545,55.727776 308.735382,59.622772 
	C325.390442,71.203072 341.991028,82.861671 358.744598,95.132545 
	C356.826538,99.107956 355.306946,102.962593 352.631805,105.679276 
	C342.982758,115.478058 332.916901,124.865242 323.064484,134.465378 
	C317.834320,139.561615 312.864624,144.933472 307.501556,149.882065 
	C303.908905,153.197037 299.831848,155.987045 295.971527,159.011963 
z"/>
<path fill="#D9D7DA" opacity="1.000000" stroke="none" 
	d="
M454.367645,288.960754 
	C442.347778,244.365860 414.341156,211.630341 377.288116,185.823227 
	C367.781921,179.202240 357.453369,173.761978 347.502808,167.778961 
	C346.392700,167.111496 345.283875,166.442001 345.432068,166.531311 
	C354.573212,156.568634 363.785461,146.528488 373.091919,136.385681 
	C378.055817,140.116714 382.355072,143.233765 386.522034,146.518661 
	C389.527466,148.887909 392.613373,149.821930 396.608368,148.248840 
	C401.720062,153.683792 406.414093,158.857132 411.108124,164.030487 
	C412.586090,166.536316 413.707092,169.361572 415.609528,171.487595 
	C421.132935,177.660202 426.969788,183.552353 432.815460,190.218597 
	C433.688354,191.545456 434.429474,192.208267 435.170593,192.871078 
	C435.170593,192.871078 435.041656,192.955597 435.049255,193.274567 
	C435.346619,194.521835 435.450195,195.568176 435.953156,196.361267 
	C450.434570,219.196960 460.585175,243.582062 463.846405,270.695740 
	C465.103760,281.149567 462.561157,287.229004 454.367645,288.960754 
z"/>
<path fill="#CF986D" opacity="1.000000" stroke="none" 
	d="
M273.991241,162.397903 
	C255.599045,190.776199 236.991318,218.873123 218.411560,246.988541 
	C195.713531,281.335815 173.034409,315.695587 150.371109,350.065796 
	C149.467896,351.435547 148.811478,352.968079 147.997345,354.789856 
	C142.305557,351.380951 136.656494,347.606934 130.655090,343.597504 
	C136.689468,335.428558 142.432114,327.523834 148.325119,319.732788 
	C151.214325,315.913025 152.406387,312.302887 149.179382,307.963287 
	C148.562714,307.134003 149.282196,304.711578 150.104294,303.520477 
	C152.967590,299.371887 156.146652,295.441254 159.452744,291.103607 
	C165.701721,294.548004 169.513763,291.300873 173.296021,286.169006 
	C203.788467,244.795868 234.456818,203.552383 265.076202,162.272858 
	C266.046967,160.964172 267.069458,159.693863 268.205994,158.227402 
	C270.280487,159.675766 272.034302,160.900253 273.991241,162.397903 
z"/>
<path fill="#D9D7DA" opacity="1.000000" stroke="none" 
	d="
M296.144806,159.300735 
	C299.831848,155.987045 303.908905,153.197037 307.501556,149.882065 
	C312.864624,144.933472 317.834320,139.561615 323.064484,134.465378 
	C332.916901,124.865242 342.982758,115.478058 352.631805,105.679276 
	C355.306946,102.962593 356.826538,99.107956 358.926788,95.417465 
	C363.505798,98.127060 368.146545,101.043678 372.530823,104.305130 
	C376.811188,107.489319 377.301941,112.195129 373.509766,115.922668 
	C355.701172,133.427841 337.765778,150.804245 319.830322,168.179825 
	C316.608032,171.301514 313.013947,171.236969 309.404297,168.727966 
	C305.035553,165.691376 300.679596,162.636475 296.144806,159.300735 
z"/>
<path fill="#C6C3C7" opacity="1.000000" stroke="none" 
	d="
M454.395386,289.344238 
	C462.561157,287.229004 465.103760,281.149567 463.846405,270.695740 
	C460.585175,243.582062 450.434570,219.196960 435.953156,196.361267 
	C435.450195,195.568176 435.346619,194.521835 435.097382,193.214355 
	C459.845459,221.166824 477.323334,252.876114 480.810272,291.057037 
	C481.452911,298.093597 481.262512,298.130798 474.477692,299.436920 
	C470.229828,300.254639 465.943481,300.888763 461.721375,301.818604 
	C458.361603,302.558563 456.713165,301.328278 456.167877,298.026581 
	C455.707703,295.240265 455.013672,292.492523 454.395386,289.344238 
z"/>
<path fill="#6D636F" opacity="1.000000" stroke="none" 
	d="
M75.981155,486.120911 
	C62.183208,476.615692 48.364510,467.140106 34.640430,457.529388 
	C33.842152,456.970367 33.140442,454.930847 33.538536,454.238373 
	C35.267376,451.231018 37.153881,448.199432 39.584503,445.781189 
	C40.303596,445.065796 43.342812,445.819244 44.723763,446.766846 
	C57.456440,455.503693 70.058464,464.431000 82.832237,473.933289 
	C80.637703,478.416046 78.309425,482.268463 75.981155,486.120911 
z"/>
<path fill="#FADB7A" opacity="1.000000" stroke="none" 
	d="
M81.943810,454.128906 
	C74.723877,449.225861 67.503944,444.322845 59.809662,439.097687 
	C62.831951,435.020416 65.620155,431.258942 68.628754,427.200134 
	C75.513237,431.995911 82.137550,436.610443 88.873169,441.871826 
	C86.637596,446.388763 84.290703,450.258820 81.943810,454.128906 
z"/>
<path fill="#FADB7A" opacity="1.000000" stroke="none" 
	d="
M97.915550,429.045776 
	C91.233986,424.510345 84.552437,419.974884 77.529976,415.208038 
	C80.539345,411.139740 83.268913,407.449707 86.350662,403.283600 
	C92.857727,407.868469 99.162903,412.311066 105.534576,417.272034 
	C103.039238,421.542175 100.477394,425.293976 97.915550,429.045776 
z"/>
<path fill="#F9CB62" opacity="1.000000" stroke="none" 
	d="
M82.107071,454.419800 
	C84.290703,450.258820 86.637596,446.388763 89.042084,442.157104 
	C95.353912,446.031891 101.608147,450.268250 108.160980,454.706848 
	C105.337547,458.987976 102.742088,462.923431 99.996178,467.087036 
	C93.843620,462.791260 88.056984,458.750946 82.107071,454.419800 
z"/>
<path fill="#FADB7A" opacity="1.000000" stroke="none" 
	d="
M113.968277,404.032867 
	C107.853416,399.882477 101.738564,395.732086 95.284813,391.351685 
	C98.268730,387.276947 100.973099,383.583954 104.053368,379.377655 
	C109.992516,383.572235 115.740166,387.631531 121.676735,392.272949 
	C119.233200,396.580994 116.600739,400.306946 113.968277,404.032867 
z"/>
<path fill="#F9CB62" opacity="1.000000" stroke="none" 
	d="
M137.986725,367.129486 
	C144.371063,371.484070 150.755402,375.838654 157.306427,380.306946 
	C154.531204,384.502808 151.997147,388.334106 149.168381,392.610931 
	C142.769974,388.175781 136.572388,383.879822 130.533813,379.226013 
	C133.124115,374.955261 135.555420,371.042389 137.986725,367.129486 
z"/>
<path fill="#F9CB62" opacity="1.000000" stroke="none" 
	d="
M114.141823,404.319580 
	C116.600739,400.306946 119.233200,396.580994 121.910316,392.518982 
	C128.214752,396.450714 134.474518,400.718536 140.937103,405.124634 
	C138.104126,409.398682 135.568787,413.223663 132.782898,417.426666 
	C126.455292,413.033966 120.385330,408.820099 114.141823,404.319580 
z"/>
<path fill="#F9CB62" opacity="1.000000" stroke="none" 
	d="
M98.085670,429.337128 
	C100.477394,425.293976 103.039238,421.542175 105.776276,417.515167 
	C111.979698,421.339905 118.007942,425.439789 124.552605,429.890930 
	C121.795441,434.073792 119.193848,438.020630 116.401413,442.256989 
	C110.220360,437.955261 104.238075,433.791870 98.085670,429.337128 
z"/>
<path fill="#BF8964" opacity="1.000000" stroke="none" 
	d="
M353.950043,55.190014 
	C359.257019,58.820618 364.530579,62.501579 369.886047,66.059158 
	C372.319366,67.675560 372.775818,69.412712 371.007996,71.806938 
	C368.967407,74.570618 367.043823,77.420715 364.849335,80.546783 
	C358.416504,76.059624 352.355011,71.831490 346.417328,67.160759 
	C349.010803,62.875454 351.480408,59.032734 353.950043,55.190014 
z"/>
<path fill="#5B515E" opacity="1.000000" stroke="none" 
	d="
M76.143959,486.407806 
	C78.309425,482.268463 80.637703,478.416046 83.024811,474.204224 
	C88.437271,477.494171 93.910439,480.987823 99.041641,484.926880 
	C100.043335,485.695831 100.507828,488.597626 99.878181,489.830078 
	C95.186897,499.012634 94.124573,499.198425 85.669090,493.339905 
	C82.523621,491.160492 79.426140,488.911804 76.143959,486.407806 
z"/>
<path fill="#FADB7A" opacity="1.000000" stroke="none" 
	d="
M137.767410,366.869659 
	C135.555420,371.042389 133.124115,374.955261 130.361496,378.940857 
	C125.655319,376.043884 121.274338,373.083191 116.909569,370.098785 
	C115.688187,369.263641 114.514603,368.358582 113.054916,367.292694 
	C115.880028,363.468628 118.622459,359.756439 121.753990,355.517578 
	C127.098778,359.271240 132.323441,362.940521 137.767410,366.869659 
z"/>
<path fill="#CF986D" opacity="1.000000" stroke="none" 
	d="
M353.710022,54.950741 
	C351.480408,59.032734 349.010803,62.875454 346.237183,66.876129 
	C341.586395,64.115883 337.239532,61.197674 333.098236,58.417450 
	C333.152771,57.622124 333.057892,57.229195 333.211792,57.015438 
	C342.825256,43.665234 338.361389,44.399731 353.710022,54.950741 
z"/>
<path fill="#C6C3C7" opacity="1.000000" stroke="none" 
	d="
M411.283112,163.723999 
	C406.414093,158.857132 401.720062,153.683792 396.985565,148.153015 
	C398.065765,147.454376 399.733978,146.462799 400.221680,146.873413 
	C404.687042,150.632858 408.947388,154.635834 413.209045,158.514511 
	C412.541962,160.382492 412.000031,161.900009 411.283112,163.723999 
z"/>
<path fill="#C6C3C7" opacity="1.000000" stroke="none" 
	d="
M435.104889,192.574097 
	C434.429474,192.208267 433.688354,191.545456 432.939484,190.535645 
	C433.634216,190.884796 434.336700,191.580963 435.104889,192.574097 
z"/>
</svg>